<svg class="icon" width="16px" height="16.00px" viewBox="0 0 1024 1024" version="1.1"
     xmlns="http://www.w3.org/2000/svg">
  <path  d="M921.728 64h-215.744a38.08 38.08 0 0 0-38.08 38.144c0 21.248 17.024 38.272 38.08 38.272h123.52L567.168 402.624a38.464 38.464 0 0 0 0 54.144 38.4 38.4 0 0 0 53.952 0l262.336-262.208v123.136a38.208 38.208 0 1 0 76.544 0V102.144c0-21.12-17.28-38.144-38.272-38.144z m-519.04 503.104l-262.336 262.144v-123.392a38.208 38.208 0 0 0-76.352 0v215.488c0 21.44 17.024 38.656 38.144 38.656h215.68a38.208 38.208 0 1 0 0-76.608H194.496l262.272-262.4a38.208 38.208 0 0 0-54.08-53.888zM194.496 140.416h123.328a38.208 38.208 0 1 0 0-76.416h-215.68A38.08 38.08 0 0 0 64 102.144v215.552a38.144 38.144 0 1 0 76.416 0V194.56l262.336 262.208a38.208 38.208 0 0 0 26.944 11.008 38.016 38.016 0 0 0 27.008-65.152L194.496 140.416z m727.232 527.424a38.336 38.336 0 0 0-38.336 38.08v123.392L621.12 567.104a38.016 38.016 0 0 0-53.952 0 38.272 38.272 0 0 0 0 53.952l262.336 262.4h-123.52a38.272 38.272 0 1 0 0 76.608h215.744a38.592 38.592 0 0 0 38.272-38.72v-215.488a38.336 38.336 0 0 0-38.272-38.016z"  />
</svg>
