<?xml version="1.0" standalone="no"?><!DOCTYPE svg PUBLIC "-//W3C//DTD SVG 1.1//EN" "http://www.w3.org/Graphics/SVG/1.1/DTD/svg11.dtd"><svg t="1546673711800" class="icon" style="" viewBox="0 0 1024 1024" version="1.1" xmlns="http://www.w3.org/2000/svg" p-id="2207" xmlns:xlink="http://www.w3.org/1999/xlink" width="16" height="16"><defs><style type="text/css"></style></defs><path d="M691.1168 896 577.7792 896c-18.1824 0-32.9344-14.8416-32.9344-33.1456l0-225.472c0-1.5424 0.0128-3.0464 0.0384-4.4928L479.0464 632.8896c0.0128 1.4656 0.032 2.9696 0.032 4.4928l0 225.472c0 18.2976-14.7584 33.1456-32.9408 33.1456L332.8064 896c-64.5632 0-117.088-56.992-117.088-127.0656L215.7184 589.0304l-6.0608 0c-34.3552 0-62.6688-17.6128-75.7312-47.136-10.7008-24.3456-9.536-63.3792 25.792-100.1408l266.2144-277.0048C448.7616 141.0432 479.3152 128 511.9744 128s63.2064 13.0432 86.0224 36.7296l266.2528 277.0048c35.4624 36.8832 36.544 75.9616 25.7344 100.2304-12.9152 29.408-41.2352 47.0528-75.6928 47.0528l-6.0672 0 0 179.9168C808.2048 839.008 755.68 896 691.1168 896L691.1168 896zM610.7328 829.7152l80.3904 0c31.6352 0 51.2064-31.5456 51.2064-60.7808L742.3296 555.8784c0-18.2912 14.7584-33.1456 32.9408-33.1456l39.0016 0c10.6752 0 13.8368-3.8976 15.5008-7.7248 1.248-3.4496 0.16-13.5936-12.9024-27.168L550.656 210.8544c-20.5248-21.3504-56.8192-21.3504-77.3888 0.0128L207.0656 487.8464c-13.0752 13.6064-14.144 23.7952-12.8768 27.2832 1.6128 3.6672 4.8064 7.6032 15.4496 7.6032l39.0208 0c18.1824 0 32.9408 14.8416 32.9408 33.1456l0 213.0624c0 29.2352 19.5648 60.7808 51.2064 60.7808l80.3904 0-0.096-199.9936c-0.2944-14.9952-0.6592-33.664 13.7216-48.4096 14.3616-14.7328 33.9456-14.7328 40.3648-14.7328l89.568 0c6.4384 0 26.0032 0 40.3648 14.7328 14.3616 14.752 14.0032 33.4208 13.7088 48.4096l-0.096 7.6608L610.7328 829.7152 610.7328 829.7152zM610.7328 829.7152" p-id="2208"></path></svg>