<?xml version="1.0" standalone="no"?><!DOCTYPE svg PUBLIC "-//W3C//DTD SVG 1.1//EN" "http://www.w3.org/Graphics/SVG/1.1/DTD/svg11.dtd"><svg t="1546673897420" class="icon" style="" viewBox="0 0 1024 1024" version="1.1" xmlns="http://www.w3.org/2000/svg" p-id="3255" xmlns:xlink="http://www.w3.org/1999/xlink" width="16" height="16"><defs><style type="text/css"></style></defs><path d="M201.335467 810.666667h621.354666l-49.237333-86.613334a42.555733 42.555733 0 0 1-5.461333-24.277333V469.333333c0-141.184-114.816-256-256-256-141.141333 0-256 114.816-256 256v230.186667l0.128 1.493333a43.008 43.008 0 0 1-5.546667 23.04L201.335467 810.666667z m694.656 85.333333h-768a42.666667 42.666667 0 0 1-37.077334-63.744l79.957334-140.629333L170.658133 469.333333c0-188.202667 153.130667-341.333333 341.333334-341.333333s341.333333 153.130667 341.333333 341.333333v222.549334l79.744 140.373333a42.769067 42.769067 0 0 1-0.170667 42.538667 42.632533 42.632533 0 0 1-36.906666 21.205333z" p-id="3256"></path><path d="M512 1024c-117.632 0-213.333333-95.701333-213.333333-213.333333h85.333333c0 70.570667 57.429333 128 128 128s128-57.429333 128-128h85.333333c0 117.632-95.701333 213.333333-213.333333 213.333333M405.9648 199.458133a127.505067 127.505067 0 0 1-21.896533-71.552c0-70.528 57.386667-127.914667 127.914666-127.914666 70.570667 0 127.914667 57.386667 127.914667 127.914666 0 25.6-7.509333 50.304-21.794133 71.509334l-70.784-47.658667c4.778667-7.082667 7.253333-15.317333 7.253333-23.850667 0-23.466667-19.072-42.581333-42.581333-42.581333-23.466667 0-42.581333 19.114667-42.581334 42.581333 0 8.533333 2.517333 16.768 7.253334 23.808l-70.698667 47.744z" p-id="3257"></path></svg>