<?xml version="1.0" standalone="no"?><!DOCTYPE svg PUBLIC "-//W3C//DTD SVG 1.1//EN" "http://www.w3.org/Graphics/SVG/1.1/DTD/svg11.dtd"><svg t="1546673690860" class="icon" style="" viewBox="0 0 1024 1024" version="1.1" xmlns="http://www.w3.org/2000/svg" p-id="1826" xmlns:xlink="http://www.w3.org/1999/xlink" width="16" height="16"><defs><style type="text/css"></style></defs><path d="M896 372.7744c-62.8736-100.9984-61.8688-102.9056-61.8688-102.9056S617.0432 328.5248 576.6208 128L450.8608 128c0 0-34.688 200.8448-256.4928 141.376C130.2464 372.3712 128.0576 375.5904 128 375.648c0.0896 0.0576 173.6064 116.9024 0 275.5648l67.3792 106.7712c0 0 191.7056-79.6928 254.4896 138.016l127.2576 0c0 0 39.9168-200.064 255.5008-140.9152 61.3824-100.9856 62.368-101.952 62.368-101.952S732.2496 517.92 896 372.7744L896 372.7744zM510.9952 653.3824c-81.0176 0-146.7136-63.3024-146.7136-141.3888s65.696-141.4016 146.7136-141.4016c81.0304 0 146.7328 63.3152 146.7328 141.4016S592.0256 653.3824 510.9952 653.3824L510.9952 653.3824zM510.9952 653.3824" p-id="1827"></path></svg>